{
  "source": "C:\\Users\\Peter\\Desktop\\stuff\\MIUN\\quantitative_research\\video_compression\\videos\\BVI-HD\\BVI-HD_CDVL_videos\\ORIG\\SmokeGuns_1920x1080_60fps.mp4",
  "output": "C:\\Users\\Peter\\Desktop\\stuff\\MIUN\\quantitative_research\\video_compression\\compressed_videos\\BVI-HD\\av1\\3\\SmokeGuns_1920x1080_60fps_av1.mkv",
  "codec": "av1",
  "ok": "Input #0, mov,mp4,m4a,3gp,3g2,mj2, from 'C:\\Users\\Peter\\Desktop\\stuff\\MIUN\\quantitative_research\\video_compression\\videos\\BVI-HD\\BVI-HD_CDVL_videos\\ORIG\\SmokeGuns_1920x1080_60fps.mp4':\n  Metadata:\n    major_brand     : isom\n    minor_version   : 512\n    compatible_brands: isomiso2avc1mp41\n    encoder         : Lavf54.28.101\n  Duration: 00:00:05.00, start: 0.000000, bitrate: 384353 kb/s\n  Stream #0:0[0x1](und): Video: h264 (High 4:4:4 Predictive) (avc1 / 0x31637661), yuv420p(progressive), 1920x1080, 384348 kb/s, 60 fps, 60 tbr, 60 tbn (default)\n    Metadata:\n      handler_name    : VideoHandler\n      vendor_id       : [0][0][0][0]\n[out#0/matroska @ 000001ec114c96c0] Codec AVOption b:a (set bitrate (in bits/s)) has not been used for any stream. The most likely reason is either wrong type (e.g. a video option with no video streams) or that it is a private option of some decoder which was not actually used for any stream.\nStream mapping:\n  Stream #0:0 -> #0:0 (h264 (native) -> av1 (libsvtav1))\nPress [q] to stop, [?] for help\nSvt[info]: -------------------------------------------\nSvt[info]: SVT [version]:\tSVT-AV1 Encoder Lib v3.1.0-19-g6ecfe8ec\nSvt[info]: SVT [build]  :\tGCC 15.2.0\t 64 bit\nSvt[info]: LIB Build date: Aug 17 2025 11:37:13\nSvt[info]: -------------------------------------------\nSvt[info]: Level of Parallelism: 5\nSvt[info]: Number of PPCS 93\nSvt[info]: [asm level on system : up to avx2]\nSvt[info]: [asm level selected : up to avx2]\nSvt[info]: -------------------------------------------\nSvt[info]: SVT [config]: main profile\ttier (auto)\tlevel (auto)\nSvt[info]: SVT [config]: width / height / fps numerator / fps denominator \t\t: 1920 / 1080 / 60 / 1\nSvt[info]: SVT [config]: bit-depth / color format \t\t\t\t\t: 8 / YUV420\nSvt[info]: SVT [config]: preset / tune / pred struct \t\t\t\t\t: 4 / PSNR / random access\nSvt[info]: SVT [config]: gop size / mini-gop size / key-frame type \t\t\t: 321 / 16 / key frame\nSvt[info]: SVT [config]: BRC mode / target bitrate (kbps)\t\t\t\t: VBR / 3000 \nSvt[info]: SVT [config]: AQ mode / Variance Boost \t\t\t\t\t: 2 / 0\nSvt[info]: SVT [config]: sharpness / luminance-based QP bias \t\t\t\t: 0 / 0\nSvt[info]: SVT [config]: QP scale compress strength \t\t\t\t\t: 0\nSvt[info]: -------------------------------------------\nOutput #0, matroska, to 'C:\\Users\\Peter\\Desktop\\stuff\\MIUN\\quantitative_research\\video_compression\\compressed_videos\\BVI-HD\\av1\\3\\SmokeGuns_1920x1080_60fps_av1.mkv':\n  Metadata:\n    major_brand     : isom\n    minor_version   : 512\n    compatible_brands: isomiso2avc1mp41\n    encoder         : Lavf62.3.100\n  Stream #0:0(und): Video: av1 (AV01 / 0x31305641), yuv420p(tv, progressive), 1920x1080, q=2-31, 3000 kb/s, 60 fps, 1k tbn (default)\n    Metadata:\n      encoder         : Lavc62.11.100 libsvtav1\n      handler_name    : VideoHandler\n      vendor_id       : [0][0][0][0]\n    Side data:\n      cpb: bitrate max/min/avg: 0/0/3000000 buffer size: 3000000 vbv_delay: N/A\nframe=    0 fps=0.0 q=0.0 size=       0KiB time=N/A bitrate=N/A speed=N/A elapsed=0:00:01.04    \nframe=    0 fps=0.0 q=0.0 size=       0KiB time=N/A bitrate=N/A speed=N/A elapsed=0:00:01.56    \nframe=    0 fps=0.0 q=0.0 size=       0KiB time=N/A bitrate=N/A speed=N/A elapsed=0:00:02.08    \nframe=    0 fps=0.0 q=0.0 size=       0KiB time=N/A bitrate=N/A speed=N/A elapsed=0:00:02.60    \nframe=    1 fps=0.3 q=14.0 size=       1KiB time=00:00:00.00 bitrate=N/A speed=   0x elapsed=0:00:03.11    \nframe=    1 fps=0.3 q=14.0 size=       1KiB time=00:00:00.00 bitrate=N/A speed=   0x elapsed=0:00:03.63    \nframe=    6 fps=1.4 q=38.0 size=       1KiB time=00:00:00.08 bitrate=  68.4kbits/s speed=0.02x elapsed=0:00:04.16    \nframe=   12 fps=2.6 q=37.0 size=       1KiB time=00:00:00.18 bitrate=  31.1kbits/s speed=0.0391x elapsed=0:00:04.68    \nframe=   19 fps=3.6 q=38.0 size=       1KiB time=00:00:00.30 bitrate=  19.0kbits/s speed=0.0574x elapsed=0:00:05.22    \nframe=   25 fps=4.3 q=33.0 size=       1KiB time=00:00:00.38 bitrate=  14.9kbits/s speed=0.0666x elapsed=0:00:05.75    \nframe=   32 fps=5.1 q=33.0 size=       1KiB time=00:00:00.51 bitrate=  11.0kbits/s speed=0.0818x elapsed=0:00:06.31    \nframe=   36 fps=5.3 q=29.0 size=       1KiB time=00:00:00.58 bitrate=   9.8kbits/s speed=0.0853x elapsed=0:00:06.83    \nframe=   40 fps=5.4 q=29.0 size=       1KiB time=00:00:00.65 bitrate=   8.8kbits/s speed=0.0883x elapsed=0:00:07.36    \nframe=   45 fps=5.7 q=36.0 size=       1KiB time=00:00:00.73 bitrate=   7.8kbits/s speed=0.0929x elapsed=0:00:07.89    \nframe=   50 fps=5.9 q=32.0 size=       1KiB time=00:00:00.81 bitrate=   7.0kbits/s speed=0.097x elapsed=0:00:08.41    \nframe=   55 fps=6.1 q=33.0 size=       1KiB time=00:00:00.90 bitrate=   6.3kbits/s speed=0.101x elapsed=0:00:08.94    \nframe=   57 fps=6.0 q=33.0 size=       1KiB time=00:00:00.93 bitrate=   6.1kbits/s speed=0.0986x elapsed=0:00:09.46    \nframe=   60 fps=6.0 q=30.0 size=       1KiB time=00:00:00.98 bitrate=   5.8kbits/s speed=0.0986x elapsed=0:00:09.96    \nframe=   66 fps=6.3 q=33.0 size=       1KiB time=00:00:01.08 bitrate=   5.3kbits/s speed=0.103x elapsed=0:00:10.49    \nframe=   71 fps=6.4 q=34.0 size=       1KiB time=00:00:01.16 bitrate=   4.9kbits/s speed=0.106x elapsed=0:00:11.01    \nframe=   75 fps=6.5 q=35.0 size=       1KiB time=00:00:01.23 bitrate=   4.6kbits/s speed=0.107x elapsed=0:00:11.53    \nframe=   81 fps=6.7 q=14.0 size=       1KiB time=00:00:01.33 bitrate=   4.3kbits/s speed=0.11x elapsed=0:00:12.07    \nframe=   86 fps=6.8 q=30.0 size=       1KiB time=00:00:01.41 bitrate=   4.0kbits/s speed=0.112x elapsed=0:00:12.61    \nframe=   89 fps=6.8 q=32.0 size=       1KiB time=00:00:01.46 bitrate=   3.9kbits/s speed=0.112x elapsed=0:00:13.12    \nframe=   95 fps=7.0 q=35.0 size=       1KiB time=00:00:01.55 bitrate=   3.7kbits/s speed=0.113x elapsed=0:00:13.65    \nframe=  100 fps=7.0 q=32.0 size=       1KiB time=00:00:01.65 bitrate=   3.5kbits/s speed=0.116x elapsed=0:00:14.21    \nframe=  104 fps=7.0 q=33.0 size=       1KiB time=00:00:01.71 bitrate=   3.3kbits/s speed=0.116x elapsed=0:00:14.75    \nframe=  111 fps=7.3 q=36.0 size=       1KiB time=00:00:01.83 bitrate=   3.1kbits/s speed=0.12x elapsed=0:00:15.29    \nframe=  118 fps=7.4 q=33.0 size=       1KiB time=00:00:01.95 bitrate=   2.9kbits/s speed=0.123x elapsed=0:00:15.83    \nframe=  120 fps=7.3 q=33.0 size=       1KiB time=00:00:01.98 bitrate=   2.9kbits/s speed=0.121x elapsed=0:00:16.36    \nframe=  127 fps=7.5 q=36.0 size=       1KiB time=00:00:02.10 bitrate=   2.7kbits/s speed=0.124x elapsed=0:00:16.87    \nframe=  132 fps=7.6 q=33.0 size=       1KiB time=00:00:02.18 bitrate=   2.6kbits/s speed=0.125x elapsed=0:00:17.40    \nframe=  137 fps=7.6 q=31.0 size=       1KiB time=00:00:02.26 bitrate=   2.5kbits/s speed=0.126x elapsed=0:00:17.92    \nframe=  144 fps=7.8 q=32.0 size=       1KiB time=00:00:02.36 bitrate=   2.4kbits/s speed=0.128x elapsed=0:00:18.44    \nframe=  149 fps=7.9 q=36.0 size=       1KiB time=00:00:02.46 bitrate=   2.3kbits/s speed=0.13x elapsed=0:00:18.95    \nframe=  154 fps=7.9 q=32.0 size=       1KiB time=00:00:02.55 bitrate=   2.2kbits/s speed=0.131x elapsed=0:00:19.47    \nframe=  160 fps=8.0 q=32.0 size=       1KiB time=00:00:02.65 bitrate=   2.1kbits/s speed=0.132x elapsed=0:00:20.02    \nframe=  166 fps=8.1 q=32.0 size=       1KiB time=00:00:02.75 bitrate=   2.1kbits/s speed=0.134x elapsed=0:00:20.56    \nframe=  171 fps=8.1 q=35.0 size=       1KiB time=00:00:02.83 bitrate=   2.0kbits/s speed=0.134x elapsed=0:00:21.07    \nframe=  178 fps=8.2 q=32.0 size=       1KiB time=00:00:02.93 bitrate=   1.9kbits/s speed=0.136x elapsed=0:00:21.60    \nframe=  183 fps=8.3 q=35.0 size=       1KiB time=00:00:03.03 bitrate=   1.9kbits/s speed=0.137x elapsed=0:00:22.15    \nframe=  188 fps=8.3 q=32.0 size=       1KiB time=00:00:03.11 bitrate=   1.8kbits/s speed=0.137x elapsed=0:00:22.68    \nframe=  195 fps=8.4 q=35.0 size=       1KiB time=00:00:03.23 bitrate=   1.8kbits/s speed=0.139x elapsed=0:00:23.22    \nframe=  201 fps=8.5 q=30.0 size=       1KiB time=00:00:03.33 bitrate=   1.7kbits/s speed=0.14x elapsed=0:00:23.77    \nframe=  209 fps=8.6 q=15.0 size=       1KiB time=00:00:03.46 bitrate=   1.6kbits/s speed=0.143x elapsed=0:00:24.29    \nframe=  217 fps=8.7 q=29.0 size=       1KiB time=00:00:03.60 bitrate=   1.6kbits/s speed=0.145x elapsed=0:00:24.81    \nframe=  221 fps=8.7 q=35.0 size=       1KiB time=00:00:03.66 bitrate=   1.6kbits/s speed=0.145x elapsed=0:00:25.33    \nframe=  229 fps=8.9 q=35.0 size=       1KiB time=00:00:03.80 bitrate=   1.5kbits/s speed=0.147x elapsed=0:00:25.84    \nframe=  235 fps=8.9 q=33.0 size=       1KiB time=00:00:03.90 bitrate=   1.5kbits/s speed=0.148x elapsed=0:00:26.36    \nframe=  245 fps=9.1 q=35.0 size=       1KiB time=00:00:04.06 bitrate=   1.4kbits/s speed=0.151x elapsed=0:00:26.88    \nframe=  253 fps=9.2 q=35.0 size=       1KiB time=00:00:04.20 bitrate=   1.4kbits/s speed=0.153x elapsed=0:00:27.45    \nframe=  257 fps=9.2 q=14.0 size=       1KiB time=00:00:04.26 bitrate=   1.3kbits/s speed=0.153x elapsed=0:00:27.96    \nframe=  265 fps=9.3 q=29.0 size=       1KiB time=00:00:04.40 bitrate=   1.3kbits/s speed=0.154x elapsed=0:00:28.49    \nframe=  273 fps=9.4 q=15.0 size=       1KiB time=00:00:04.53 bitrate=   1.3kbits/s speed=0.156x elapsed=0:00:29.01    \nframe=  275 fps=9.3 q=32.0 size=       1KiB time=00:00:04.56 bitrate=   1.2kbits/s speed=0.155x elapsed=0:00:29.55    \nframe=  281 fps=9.3 q=28.0 size=       1KiB time=00:00:04.66 bitrate=   1.2kbits/s speed=0.155x elapsed=0:00:30.06    \n[out#0/matroska @ 000001ec114c96c0] video:1790KiB audio:0KiB subtitle:0KiB other streams:0KiB global headers:0KiB muxing overhead: 0.116018%\nframe=  300 fps=9.8 q=40.0 Lsize=    1792KiB time=00:00:04.98 bitrate=2946.6kbits/s speed=0.163x elapsed=0:00:30.58    \n",
  "seconds": 31.018428325653076,
  "probe_out": {}
}